<svg xmlns="http://www.w3.org/2000/svg" version="1.1" xmlns:xlink="http://www.w3.org/1999/xlink" xmlns:svgjs="http://svgjs.com/svgjs" width="512" height="512" x="0" y="0" viewBox="0 0 34 34" style="enable-background:new 0 0 512 512" xml:space="preserve" class=""><g><linearGradient id="linear-gradient" gradientUnits="userSpaceOnUse" x1="3.724" x2="28.318" y1="32.874" y2="3.468"><stop offset=".132" stop-color="#00c5e5"></stop><stop offset="1" stop-color="#83e6ed"></stop></linearGradient><linearGradient id="linear-gradient-2" x1="5.104" x2="29.698" xlink:href="#linear-gradient" y1="34.028" y2="4.622"></linearGradient><g id="Layer_2" data-name="Layer 2"><path d="m17 1a16 16 0 1 0 16 16 16.019 16.019 0 0 0 -16-16zm0 30a14 14 0 1 1 14-14 14.015 14.015 0 0 1 -14 14z" fill="url(#linear-gradient)" data-original="url(#linear-gradient)" class=""></path><path d="m20.707 8.293a1 1 0 0 0 -1.414 0l-8 8a1 1 0 0 0 0 1.414l8 8a1 1 0 0 0 1.414-1.414l-7.293-7.293 7.293-7.293a1 1 0 0 0 0-1.414z" fill="url(#linear-gradient-2)" data-original="url(#linear-gradient-2)" class=""></path></g></g></svg>