<svg xmlns="http://www.w3.org/2000/svg" version="1.1" xmlns:xlink="http://www.w3.org/1999/xlink" xmlns:svgjs="http://svgjs.com/svgjs" width="512" height="512" x="0" y="0" viewBox="0 0 512 512" style="enable-background:new 0 0 512 512" xml:space="preserve" class=""><g transform="matrix(1,0,0,1,0,0)">
<g>
	<path style="fill-rule:evenodd;clip-rule:evenodd;" d="M256,134.737c37.206,0,67.368-30.162,67.368-67.368   C323.368,30.162,293.206,0,256,0s-67.368,30.162-67.368,67.368C188.632,104.575,218.794,134.737,256,134.737z M315.664,495.048   l-47.398-104.274c-4.787-10.531-19.745-10.531-24.532,0l-47.397,104.274C191.644,505.372,181.351,512,170.011,512   c-18.249,0-31.935-16.695-28.356-34.589l41.19-205.952c3.447-17.237-4.64-34.725-20.006-43.262l-80.988-44.993   c-8.939-4.966-14.482-14.388-14.482-24.613c0-18.706,17.905-32.212,35.891-27.073l119.295,34.084   c21.859,6.245,45.031,6.245,66.89,0l119.295-34.084c17.987-5.14,35.891,8.366,35.891,27.073c0,10.225-5.544,19.647-14.482,24.613   l-80.988,44.993c-15.366,8.537-23.454,26.025-20.006,43.262l41.19,205.952C373.924,495.305,360.238,512,341.989,512   C330.649,512,320.356,505.372,315.664,495.048z" fill="#23b0ff" data-original="#000000" class=""></path>
</g>















</g></svg>