<svg xmlns="http://www.w3.org/2000/svg" version="1.1" xmlns:xlink="http://www.w3.org/1999/xlink" xmlns:svgjs="http://svgjs.com/svgjs" width="512" height="512" x="0" y="0" viewBox="0 0 512 512" style="enable-background:new 0 0 512 512" xml:space="preserve" class=""><g><linearGradient id="SVGID_1_" gradientUnits="userSpaceOnUse" x1="256" x2="256" y1="512" y2="0"><stop offset="0" stop-color="#009efb"></stop><stop offset="1" stop-color="#68c185"></stop></linearGradient><path clip-rule="evenodd" d="m256 0c141.385 0 256 114.615 256 256s-114.615 256-256 256-256-114.615-256-256 114.615-256 256-256zm13.582 163.596-13.583 14.69-13.581-14.688c-29.683-32.103-78.254-32.103-107.939.001-29.683 32.103-29.683 84.633 0 116.736 37.896 40.986 75.793 81.971 113.69 122.957 2.092 2.263 4.747 3.424 7.831 3.424s5.738-1.161 7.831-3.424c37.898-40.988 75.79-81.972 113.689-122.959 29.685-32.104 29.683-84.633-.002-116.737-29.729-32.153-78.307-32.044-107.936 0z" fill="url(#SVGID_1_)" fill-rule="evenodd" data-original="url(#SVGID_1_)"></path></g></svg>