<svg xmlns="http://www.w3.org/2000/svg" version="1.1" xmlns:xlink="http://www.w3.org/1999/xlink" xmlns:svgjs="http://svgjs.com/svgjs" width="512" height="512" x="0" y="0" viewBox="0 0 512 512" style="enable-background:new 0 0 512 512" xml:space="preserve" class=""><g><path d="m75 0-37.5 75 37.5 75c41.421875 0 75-33.578125 75-75s-33.578125-75-75-75zm0 0" fill="#0a77e8" data-original="#0a77e8" class=""></path><path d="m0 75c0 41.421875 33.578125 75 75 75v-150c-41.421875 0-75 33.578125-75 75zm0 0" fill="#0f9af0" data-original="#0f9af0"></path><path d="m437 0-37.5 75 37.5 75c41.421875 0 75-33.578125 75-75s-33.578125-75-75-75zm0 0" fill="#085aae" data-original="#085aae"></path><path d="m362 75c0 41.421875 33.578125 75 75 75v-150c-41.421875 0-75 33.578125-75 75zm0 0" fill="#0a77e8" data-original="#0a77e8" class=""></path><path d="m256 0-37.5 75 37.5 75c41.421875 0 75-33.578125 75-75s-33.578125-75-75-75zm0 0" fill="#085aae" data-original="#085aae"></path><path d="m181 75c0 41.421875 33.578125 75 75 75v-150c-41.421875 0-75 33.578125-75 75zm0 0" fill="#0a77e8" data-original="#0a77e8" class=""></path></g></svg>