<svg xmlns="http://www.w3.org/2000/svg" version="1.1" xmlns:xlink="http://www.w3.org/1999/xlink" xmlns:svgjs="http://svgjs.com/svgjs" width="512" height="512" x="0" y="0" viewBox="0 0 32 32" style="enable-background:new 0 0 512 512" xml:space="preserve" class=""><g><linearGradient id="linear-gradient" gradientUnits="userSpaceOnUse" x1="1" x2="31" y1="16" y2="16"><stop stop-opacity="1" stop-color="#02d9ff" offset="0"></stop><stop stop-opacity="1" stop-color="#23b0ff" offset="0.8378378378378378"></stop><stop stop-opacity="1" stop-color="#23b0ff" offset="0.9845559845559846"></stop><stop stop-opacity="1" stop-color="#23b0ff" offset="1"></stop></linearGradient><g id="Layer_3" data-name="Layer 3"><path d="m16 1a15 15 0 1 0 15 15 15.017 15.017 0 0 0 -15-15zm5.707 19.293a1 1 0 1 1 -1.414 1.414l-4.293-4.293-4.293 4.293a1 1 0 0 1 -1.414-1.414l4.293-4.293-4.293-4.293a1 1 0 0 1 1.414-1.414l4.293 4.293 4.293-4.293a1 1 0 0 1 1.414 1.414l-4.293 4.293z" fill="url(#linear-gradient)" data-original="url(#linear-gradient)" class=""></path></g></g></svg>