<svg xmlns="http://www.w3.org/2000/svg" version="1.1" xmlns:xlink="http://www.w3.org/1999/xlink" xmlns:svgjs="http://svgjs.com/svgjs" width="512" height="512" x="0" y="0" viewBox="0 0 48 48" style="enable-background:new 0 0 512 512" xml:space="preserve" class=""><g><g transform="translate(-48 -432)"><g id="Icon"><path d="m67.1 473c.464 2.281 2.483 4 4.9 4s4.436-1.719 4.9-4zm1.699-31.603c-.502-.668-.799-1.498-.799-2.397 0-2.208 1.792-4 4-4s4 1.792 4 4c0 .9-.298 1.731-.801 2.4 2.249.571 4.325 1.739 5.993 3.408 2.438 2.438 3.808 5.744 3.808 9.192v6.686c0 2.387.948 4.676 2.636 6.364l2.243 2.243c.286.286.371.716.216 1.09-.154.373-.519.617-.923.617h-34.344c-.404 0-.769-.244-.923-.617-.155-.374-.07-.804.216-1.09l2.243-2.243c1.688-1.688 2.636-3.977 2.636-6.364 0-2.911 0-6.686 0-6.686 0-6.075 4.167-11.176 9.799-12.603zm3.201-4.397c1.104 0 2 .896 2 2s-.896 2-2 2-2-.896-2-2 .896-2 2-2z" fill="#2488ff" data-original="#000000" class=""></path></g></g></g></svg>