<svg xmlns="http://www.w3.org/2000/svg" version="1.1" xmlns:xlink="http://www.w3.org/1999/xlink" xmlns:svgjs="http://svgjs.com/svgjs" width="512" height="512" x="0" y="0" viewBox="0 0 385.567 385.567" style="enable-background:new 0 0 512 512" xml:space="preserve" class=""><g>
<path style="" d="M369.894,385.567c-4.18,0-7.837-1.567-10.971-4.702l-89.861-89.861
	c-6.269-6.269-6.269-16.196,0-21.943c6.269-6.269,16.196-6.269,21.943,0l89.861,89.861c6.269,6.269,6.269,16.196,0,21.943
	C377.731,384,374.073,385.567,369.894,385.567z" fill="#4dcfe0" data-original="#4dcfe0" class=""></path>
<path style="" d="M169.796,339.592C76.278,339.592,0,263.314,0,169.796S76.278,0,169.796,0
	s169.796,76.278,169.796,169.796S263.314,339.592,169.796,339.592z M169.796,31.347c-76.278,0-138.449,62.171-138.449,138.449
	s62.171,138.449,138.449,138.449s138.449-62.171,138.449-138.449S246.073,31.347,169.796,31.347z" fill="#1185e0" data-original="#1185e0" class=""></path>
<g>
</g>
<g>
</g>
<g>
</g>
<g>
</g>
<g>
</g>
<g>
</g>
<g>
</g>
<g>
</g>
<g>
</g>
<g>
</g>
<g>
</g>
<g>
</g>
<g>
</g>
<g>
</g>
<g>
</g>
</g></svg>