<svg xmlns="http://www.w3.org/2000/svg" version="1.1" xmlns:xlink="http://www.w3.org/1999/xlink" xmlns:svgjs="http://svgjs.com/svgjs" width="512" height="512" x="0" y="0" viewBox="0 0 200 200" style="enable-background:new 0 0 512 512" xml:space="preserve" class=""><g><path d="m59.85 45.07-8.63 17.87s-11.3 5.55 1.43 8.93c0 0 10.43 110.29 9.35 112.76h60.54v-8.16l8.78-105.05s12.02-2 2.46-8.32l-8.07-18.02h-8.45l2.82-10.31 33.27-13.56-2.31-6.32-30.96 13.76-2.82-1.06-3.56 2.5-.9 2.45.76 1.51-3.39 11.27-50.33-.23z" fill="#ffffff" data-original="#ffffff" class=""></path><path d="m57.48 124.43 72.52-39.01-2.83 35.71-66.85 36.3z" fill="#ff7e7e" data-original="#ff7e7e"></path><path d="m60.32 157.43 1.44 19.13 60.78-.1 4.63-55.33z" fill="#9ab0c7" data-original="#9ab0c7"></path><path d="m52.66 71.15 4.82 53.28 72.52-39.79 1.32-13.23z" fill="#fff99d" data-original="#fff99d"></path><path d="m61.76 176.56 60.46-.1v8.54h-60.46z" fill="#fffbe7" data-original="#fffbe7"></path><path d="m51.22 62.94 8.63-17.87h65.87l7.72 17.25s9.68 7.75-1.34 8.93l-83.36-.84s-6.39-1.75 2.48-7.47z" fill="#fffbe7" data-original="#fffbe7"></path><path d="m152.05 14.6c-.22-.55-.9-.83-1.44-.58 0 0-31.65 13.6-31.65 13.6-1.26-1.42-4.38-.48-4.25 1.59-2.12-.09-3.87 2.67-2.04 4.23l-2.89 10.84h-50.35c-.42 0-.8.24-.98.62l-8.43 17.48c-7.39 1.12-5.34 11.19 1.77 10.21 2.33 32.93 7.96 79.76 8.93 112.4 0 .6.49 1.09 1.09 1.09h60.62c.6 0 1.09-.49 1.09-1.09 0-.42.2-9.03-.26-9.11 2.49-27.94 6.57-75.69 8.94-103.29 6.52.98 9.14-8.04 2.62-10.05l-8.47-17.64c-.18-.38-.56-.62-.98-.62h-6.52l2.13-8s33.09-14.04 33.1-14.05c.55-.23.81-.87.58-1.42l-2.6-6.21zm-34.78 14.04c.13 0 .25.02.33.04.19.52.37 1.56.54 2.84l-1.66-1.82c-.31-.75.24-1.1.79-1.05zm-3.6 2.85c.18-.28.51-.48.75-.56.43.34 1.14 1.13 1.95 2.12l-2.38-.67c-.3-.35-.56-.45-.32-.89zm.92 3.27 4.21 1.16-2.23 8.36h-4.53l2.54-9.52zm6.75 149.14h-58.45v-6.21s58.44 0 58.44 0v6.21zm-.24-8.4h-58.29l-1.49-17.65 64.4-35.14zm4.85-55.4-64.83 35.38-2.61-30.27 70.26-38.4-2.82 33.3zm3.04-35.91-70.69 38.63-4.32-50.23h76.02zm6.59-18.77c1.93 1.69.33 5-2.07 4.99h-83.11c-1.27.06-3-1.62-2.94-2.94-.07-1.38 1.55-2.99 2.94-2.94h83.11c.78 0 1.48.3 2.07.9zm-10.91-18.96 7.43 15.47h-79.44l7.45-15.47zm-3.52-12.63c-.36-.45-.92-3.73-1.07-4.33l30.37-13.05 1.75 4.2-31.06 13.18z" fill="#564859" data-original="#564859"></path></g></svg>