<svg xmlns="http://www.w3.org/2000/svg" version="1.1" xmlns:xlink="http://www.w3.org/1999/xlink" xmlns:svgjs="http://svgjs.com/svgjs" width="512" height="512" x="0" y="0" viewBox="0 0 512 512" style="enable-background:new 0 0 512 512" xml:space="preserve" class=""><g><g><g><g><g><g><path d="m404.826 260.35h-22.858c-11.187 0-20.255-9.069-20.255-20.255 0-11.187 9.069-20.255 20.255-20.255h22.858c11.187 0 20.255 9.069 20.255 20.255 0 11.186-9.068 20.255-20.255 20.255z" fill="#ffaf40" data-original="#ffaf40"></path><g><path d="m412.409 295.957h40.388c24.541 0 44.435 27.163 44.435 60.67s-19.894 60.67-44.435 60.67h-38.967z" fill="#44433f" data-original="#44433f"></path><ellipse cx="413.83" cy="356.627" fill="#595751" rx="44.435" ry="60.67" data-original="#595751"></ellipse></g><path d="m202.841 295.957h40.388c24.541 0 44.435 27.163 44.435 60.67s-19.894 60.67-44.435 60.67h-38.967z" fill="#44433f" data-original="#44433f"></path><path d="m406.003 239.348-49.142-61.793c-16.258-20.443-40.952-32.356-67.072-32.356h-158.408c-10.837 0-19.622 8.785-19.622 19.622v198.746c0 10.837 8.785 19.622 19.622 19.622h365.9c8.128 0 14.716-6.589 14.716-14.716v-38.341c0-28.198-16.541-53.774-42.257-65.341z" fill="#ffc751" data-original="#ffc751"></path><path d="m512 330.132v38.346c0 8.119-6.596 14.714-14.714 14.714h-154.202c56.925-19.567 102.496-63.51 124.258-119.353l2.395.956c25.721 11.562 42.263 37.137 42.263 65.337z" fill="#ffaf40" data-original="#ffaf40"></path><path d="m299.659 290.268h182.471v37.2h-182.471z" fill="#595751" data-original="#595751"></path><path d="m482.13 290.263v37.201h-85.787c14.935-6.764 25.984-20.575 28.925-37.201z" fill="#44433f" data-original="#44433f"></path><g><path d="m236.745 246.105-40.913-64.925c-4.117-6.533.578-15.041 8.3-15.041h134.183c5.981 0 11.635 2.728 15.357 7.408l52.33 65.801c5.112 6.428.535 15.918-7.679 15.918h-144.977c-6.739-.001-13.007-3.46-16.601-9.161z" fill="#b6f0ff" data-original="#b6f0ff"></path></g><path d="m291.1 166.142h-68.596c-9.665 0-17.5 7.835-17.5 17.5 0 9.665 7.835 17.5 17.5 17.5h68.596c9.665 0 17.5-7.835 17.5-17.5 0-9.665-7.835-17.5-17.5-17.5z" fill="#dcfeff" data-original="#dcfeff"></path><path d="m268.483 166.142h-4.078c-9.665 0-17.5 7.835-17.5 17.5 0 9.665 7.835 17.5 17.5 17.5h4.078c9.665 0 17.5-7.835 17.5-17.5 0-9.665-7.835-17.5-17.5-17.5z" fill="#ffffff" data-original="#ffffff" class=""></path><g><path d="m398.329 255.268h-61.599c8.717-11.511 13.885-25.847 13.885-41.402 0-18.548-7.352-35.373-19.294-47.725h6.995c5.976 0 11.637 2.72 15.355 7.404l52.335 65.8c5.104 6.429.536 15.923-7.677 15.923z" fill="#73e1ff" data-original="#73e1ff"></path></g><g><path d="m199.523 247.745-49.982-79.316c-.898-1.425-2.465-2.29-4.15-2.29h-23.13v89.127h73.111c3.862-.001 6.21-4.255 4.151-7.521z" fill="#a0daf2" data-original="#a0daf2"></path></g><ellipse cx="204.262" cy="356.627" fill="#595751" rx="44.435" ry="60.67" data-original="#595751"></ellipse><ellipse cx="204.262" cy="356.627" fill="#e8e4d8" rx="20.658" ry="28.205" data-original="#e8e4d8"></ellipse><path d="m191.015 260.35h-22.858c-11.187 0-20.255-9.069-20.255-20.255 0-11.187 9.069-20.255 20.255-20.255h22.858c11.187 0 20.255 9.069 20.255 20.255 0 11.186-9.068 20.255-20.255 20.255z" fill="#ffaf40" data-original="#ffaf40"></path><path d="m340.13 308.092-8.743-10.877c-3.531-4.392-8.862-6.947-14.497-6.947h-33.611c-10.272 0-18.6 8.327-18.6 18.6 0 10.272 8.327 18.6 18.6 18.6h47.566c10.002 0 15.552-11.581 9.285-19.376z" fill="#fff7c7" data-original="#fff7c7"></path><path d="m446.546 308.092 8.743-10.877c3.53-4.392 8.862-6.947 14.497-6.947h23.611c10.272 0 18.6 8.327 18.6 18.6 0 10.272-8.327 18.6-18.6 18.6h-37.566c-10.002 0-15.552-11.581-9.285-19.376z" fill="#fff7c7" data-original="#fff7c7"></path><path d="m464.631 383.189h-133.115l5.883-20.467c2.326-8.092 9.729-13.667 18.149-13.667h85.052c8.42 0 15.823 5.575 18.149 13.667z" fill="#e8e4d8" data-original="#e8e4d8"></path><g fill="#fff7c7"><ellipse cx="490.089" cy="357.089" rx="11.278" ry="13.25" fill="#fff7c7" data-original="#fff7c7"></ellipse><ellipse cx="303.272" cy="357.089" rx="12.691" ry="13.25" fill="#fff7c7" data-original="#fff7c7"></ellipse></g></g></g><path d="m376.461 290.268h-117.757c-9.665 0-17.5-7.835-17.5-17.5 0-9.665 7.835-17.5 17.5-17.5h117.757c9.665 0 17.5 7.835 17.5 17.5 0 9.665-7.835 17.5-17.5 17.5z" fill="#ffe059" data-original="#ffe059"></path><path d="m309.591 255.268h-21.334c-9.665 0-17.5 7.835-17.5 17.5 0 9.665 7.835 17.5 17.5 17.5h21.334c9.665 0 17.5-7.835 17.5-17.5.001-9.665-7.834-17.5-17.5-17.5z" fill="#fff370" data-original="#fff370"></path><path d="m464.633 383.192h-55.087c10.723-8.528 18.642-20.449 22.14-34.134h8.917c8.413 0 15.817 5.567 18.149 13.664z" fill="#d8d4c9" data-original="#d8d4c9"></path></g><g><g><g><g><path d="m236.329 212.868c0-65.175-52.766-118.027-117.909-118.164-64.81-.138-118.617 53.721-118.419 118.532.111 36.439 16.716 68.996 42.74 90.598 33.419 27.74 56.886 65.622 67.88 107.639 2.032 7.765 13.055 7.765 15.087 0l.205-.784c10.904-41.672 34.217-79.232 67.434-106.656 26.251-21.673 42.982-54.465 42.982-91.165z" fill="#fe255f" data-original="#fe255f" class=""></path></g><g><path d="m236.327 212.866c0 36.701-16.728 69.496-42.977 91.17-33.217 27.42-56.536 64.979-67.436 106.651l-.208.788c-1.014 3.881-4.278 5.822-7.542 5.822s-6.527-1.941-7.542-5.822c-9.041-34.559-26.519-66.314-51.035-91.933 9.382 2.123 19.141 3.239 29.166 3.239 72.842 0 131.892-59.05 131.892-131.892 0-18.782-3.925-36.651-11.007-52.831 16.677 20.376 26.689 46.423 26.689 74.808z" fill="#e01152" data-original="#e01152"></path></g><circle cx="118.165" cy="211.958" fill="#f9f8f2" r="78.665" data-original="#f9f8f2" class=""></circle><path d="m196.827 211.958c0 42.395-33.542 76.963-75.539 78.6 29.566-17.438 49.404-49.617 49.404-86.428 0-25.137-9.252-48.115-24.537-65.71 29.623 11.288 50.672 39.952 50.672 73.538z" fill="#f1eee0" data-original="#f1eee0"></path></g></g><g><path d="m.001 213.235c.011 3.541.179 7.045.497 10.505 1.164 12.688 13.978 20.805 25.996 16.572.125-.044.25-.088.376-.132 8.562-3.009 13.911-11.447 13.016-20.479-.253-2.548-.383-5.132-.383-7.747 0-37.829 26.709-69.408 62.303-76.934 8.997-1.903 15.514-9.711 15.514-18.907 0-12.182-11.18-21.421-23.098-18.904-53.475 11.295-94.396 59.49-94.221 116.026z" fill="#fc709b" data-original="#fc709b" class=""></path></g><g><path d="m67.537 151.798c3.973-3.347 8.281-6.307 12.868-8.824 7.717-4.234 11.538-13.192 9.225-21.686-3.321-12.198-17.206-17.903-28.245-11.742-6.472 3.612-12.582 7.817-18.255 12.535-9.781 8.135-9.257 23.307 1.112 30.678 7.077 5.03 16.655 4.632 23.295-.961z" fill="#f7a6c1" data-original="#f7a6c1"></path></g></g></g><path d="m86.581 139.909c-18.845 8.268-33.82 23.71-41.477 42.872-5.24 13.115 4.537 27.368 18.661 27.368 8.103 0 15.529-4.83 18.51-12.365 3.756-9.495 11.17-17.154 20.505-21.226 8.276-3.609 13.432-12.135 12.111-21.357-2.033-14.202-15.172-21.056-28.31-15.292z" fill="#ffffff" data-original="#ffffff" class=""></path></g></g></svg>