<svg xmlns="http://www.w3.org/2000/svg" version="1.1" xmlns:xlink="http://www.w3.org/1999/xlink" xmlns:svgjs="http://svgjs.com/svgjs" width="512" height="512" x="0" y="0" viewBox="0 0 32 32" style="enable-background:new 0 0 512 512" xml:space="preserve" class=""><g><rect fill="#e6e7e8" height="28" rx="3" width="20" x="2" y="2" data-original="#e6e7e8" class=""></rect><path d="m21 6a9 9 0 1 0 9 9 9.01 9.01 0 0 0 -9-9z" fill="#cc9e29" data-original="#cc9e29" class=""></path><path d="m21 6a9 9 0 1 0 9 9 9.01 9.01 0 0 0 -9-9zm0 16a7 7 0 1 1 7-7 7.008 7.008 0 0 1 -7 7z" fill="#ffc933" data-original="#ffc933" class=""></path><path d="m22 26v1a3.009 3.009 0 0 1 -3 3h-14a3.009 3.009 0 0 1 -3-3v-1z" fill="#66c8ff" data-original="#66c8ff"></path><path d="m21 12a1 1 0 0 1 1 1h2a3 3 0 0 0 -2-2.816v-1.184h-2v1.184a2.993 2.993 0 0 0 1 5.816 1 1 0 1 1 -1 1h-2a3 3 0 0 0 2 2.816v1.184h2v-1.184a2.993 2.993 0 0 0 -1-5.816 1 1 0 0 1 0-2z" fill="#ffc933" data-original="#ffc933" class=""></path><g fill="#66ff6d"><path d="m11.414 10.293-3-3a1 1 0 0 0 -1.414 0l-3 3 1.414 1.414 1.293-1.293v8.586h2v-8.586l1.293 1.293z" fill="#66ff6d" data-original="#66ff6d" class=""></path><path d="m6.707 20h2v3h-2z" fill="#66ff6d" data-original="#66ff6d" class=""></path></g></g></svg>